General
Complete name                    : Surrogates 2009 .SWESUB.DVDRip.XviD-Zen_Bud.avi
Format                           : AVI
Format/Info                      : Audio Video Interleave
File size                        : 703 MiB
Duration                         : 1h 28mn
Overall bit rate                 : 1 109 Kbps

Video

Format                           : MPEG-4 Visual
Codec ID/Hint                    : XviD
Duration                         : 1h 28mn
Bit rate                         : 968 Kbps
Width                            : 720 pixels
Height                           : 356 pixels
Display aspect ratio             : 2.35:1
Bits/(Pixel*Frame)               : 0.157
Stream size                      : 613 MiB (87%)
Writing library                  : XviD 1.1.2 (UTC 2006-11-01)

Audio

Format                           : MPEG Audio
Codec ID/Hint                    : MP3
Duration                         : 1h 28mn
Bit rate                         : 128 Kbps
Channel(s)                       : 2 channels
Sampling rate                    : 48.0 KHz
Stream size                      : 81.1 MiB (12%)
Writing library                  : LAME3.98

